name rise32.9588peak41.5061fall63.4684.mot
datacolumns 19
datarows 14
range 4.70165300000000 4.72331300000000
endheader
time	ground_force1_vx	ground_force1_vy	ground_force1_vz	ground_force1_px	ground_force1_py	ground_force1_pz	ground_force2_vx	ground_force2_vy	ground_force2_vz	ground_force2_px	ground_force2_py	ground_force2_pz	ground_torque1_x	ground_torque1_y	ground_torque1_z	ground_torque2_x	ground_torque2_y	ground_torque2_z	
4.70165300000000	-9.85145100000000	43.95802600000000	-10.61225600000000	0.28760500000000	0.00000000000000	0.08796200000000	-35.46189600000000	763.81333099999995	-41.39864300000000	0.11497500000000	0.00000000000000	-0.07218600000000	0.00000000000000	-5.91585900000000	0.00000000000000	0.00000000000000	-12.74016500000000	0.00000000000000	
4.70331200000000	-10.74854200000000	51.83445700000000	-11.86051100000000	0.29350600000000	0.00000000000000	0.08944900000000	-36.31889000000000	760.41013199999998	-41.01576100000000	0.11410300000000	0.00000000000000	-0.07207700000000	0.00000000000000	-6.71013600000000	0.00000000000000	0.00000000000000	-12.72931600000000	0.00000000000000	
4.70498500000000	-11.44737700000000	59.89494600000000	-12.96920000000000	0.29876200000000	0.00000000000000	0.09076700000000	-37.20012900000000	756.87198999999998	-40.62128800000000	0.11323000000000	0.00000000000000	-0.07196800000000	0.00000000000000	-7.44364000000000	0.00000000000000	0.00000000000000	-12.72358400000000	0.00000000000000	
4.70664700000000	-11.92236100000000	68.04337000000000	-13.91043300000000	0.30348700000000	0.00000000000000	0.09194600000000	-38.10388700000000	753.19357100000002	-40.21494100000000	0.11235700000000	0.00000000000000	-0.07185900000000	0.00000000000000	-8.09880700000000	0.00000000000000	0.00000000000000	-12.72269400000000	0.00000000000000	
4.70831200000000	-12.15938300000000	76.20536199999999	-14.66638400000000	0.30776900000000	0.00000000000000	0.09300800000000	-39.02828500000000	749.36951199999999	-39.79644500000000	0.11148400000000	0.00000000000000	-0.07174900000000	0.00000000000000	-8.66350700000000	0.00000000000000	0.00000000000000	-12.72633900000000	0.00000000000000	
4.70998200000000	-12.15554500000000	84.33087100000000	-15.22932200000000	0.31168000000000	0.00000000000000	0.09397100000000	-39.97129300000000	745.39445100000000	-39.36553100000000	0.11061400000000	0.00000000000000	-0.07164000000000	0.00000000000000	-9.13121500000000	0.00000000000000	0.00000000000000	-12.73418500000000	0.00000000000000	
4.71165300000000	-11.91801900000000	92.39428700000001	-15.60082400000000	0.31527600000000	0.00000000000000	0.09484900000000	-40.93073900000000	741.26305000000002	-38.92194300000000	0.10974600000000	0.00000000000000	-0.07153000000000	0.00000000000000	-9.50070700000000	0.00000000000000	0.00000000000000	-12.74587100000000	0.00000000000000	
4.71331900000000	-11.46227600000000	100.39251600000000	-15.79034400000000	0.31860000000000	0.00000000000000	0.09565300000000	-41.90431200000000	736.97002899999995	-38.46543500000000	0.10888300000000	0.00000000000000	-0.07142100000000	0.00000000000000	-9.77536000000000	0.00000000000000	0.00000000000000	-12.76100800000000	0.00000000000000	
4.71498400000000	-10.80992700000000	108.34152800000000	-15.81338900000000	0.32168900000000	0.00000000000000	0.09639400000000	-42.88956900000000	732.51019399999996	-37.99578200000000	0.10802600000000	0.00000000000000	-0.07131000000000	0.00000000000000	-9.96220700000000	0.00000000000000	0.00000000000000	-12.77918700000000	0.00000000000000	
4.71665200000000	-9.98644100000000	116.27192900000000	-15.68952200000000	0.32457400000000	0.00000000000000	0.09707900000000	-43.88394300000000	727.87846500000001	-37.51277500000000	0.10717500000000	0.00000000000000	-0.07120000000000	0.00000000000000	-10.07084800000000	0.00000000000000	0.00000000000000	-12.79997100000000	0.00000000000000	
4.71832000000000	-9.01893400000000	124.22408900000001	-15.44036300000000	0.32727900000000	0.00000000000000	0.09771600000000	-44.88474800000000	723.06991500000004	-37.01622800000000	0.10633200000000	0.00000000000000	-0.07108900000000	0.00000000000000	-10.11233700000000	0.00000000000000	0.00000000000000	-12.82290500000000	0.00000000000000	
4.71997900000000	-7.93420200000000	132.24330100000000	-15.08778000000000	0.32982400000000	0.00000000000000	0.09830800000000	-45.88918800000000	718.07979300000000	-36.50598100000000	0.10549900000000	0.00000000000000	-0.07097700000000	0.00000000000000	-10.09815200000000	0.00000000000000	0.00000000000000	-12.84751100000000	0.00000000000000	
4.72164700000000	-6.75710900000000	140.37535800000001	-14.65236800000000	0.33222600000000	0.00000000000000	0.09886200000000	-46.89437000000000	712.90355799999998	-35.98190000000000	0.10467500000000	0.00000000000000	-0.07086500000000	0.00000000000000	-10.03929400000000	0.00000000000000	0.00000000000000	-12.87329700000000	0.00000000000000	
4.72331300000000	-5.50940400000000	148.66281499999999	-14.15227900000000	0.33450000000000	0.00000000000000	0.09938200000000	-47.89730700000000	707.53691100000003	-35.44388300000000	0.10386400000000	0.00000000000000	-0.07075100000000	0.00000000000000	-9.94559000000000	0.00000000000000	0.00000000000000	-12.89975000000000	0.00000000000000	
